<?xml version="1.0" encoding="UTF-8"?>
<svg width="24px" height="24px" viewBox="0 0 24 24" version="1.1" xmlns="http://www.w3.org/2000/svg" xmlns:xlink="http://www.w3.org/1999/xlink">
    <!-- Generator: Sketch 60 (88103) - https://sketch.com -->
    <title>1. Products Logos / 24 / Continous Pentest</title>
    <desc>Created with Sketch.</desc>
    <defs>
        <linearGradient x1="97.7632195%" y1="-58.0938596%" x2="38.3844414%" y2="76.7359649%" id="linearGradient-1">
            <stop stop-color="#6EBFE1" offset="0%"></stop>
            <stop stop-color="#41AAD7" offset="50%"></stop>
            <stop stop-color="#1896CC" offset="100%"></stop>
        </linearGradient>
        <linearGradient x1="129.139929%" y1="-122.632308%" x2="20.8255858%" y2="113.838462%" id="linearGradient-2">
            <stop stop-color="#6EBFE1" offset="0%"></stop>
            <stop stop-color="#41AAD7" offset="50%"></stop>
            <stop stop-color="#1896CC" offset="100%"></stop>
        </linearGradient>
        <linearGradient x1="61.218125%" y1="38.9934219%" x2="5.135625%" y2="88.8281133%" id="linearGradient-3">
            <stop stop-color="#6EBFE1" offset="0%"></stop>
            <stop stop-color="#41AAD7" offset="50%"></stop>
            <stop stop-color="#1896CC" offset="100%"></stop>
        </linearGradient>
        <linearGradient x1="64.1238889%" y1="34.5472068%" x2="14.2727778%" y2="69.1787222%" id="linearGradient-4">
            <stop stop-color="#6EBFE1" offset="0%"></stop>
            <stop stop-color="#41AAD7" offset="50%"></stop>
            <stop stop-color="#1896CC" offset="100%"></stop>
        </linearGradient>
        <linearGradient x1="89.8613573%" y1="-16.072807%" x2="30.4819175%" y2="118.757895%" id="linearGradient-5">
            <stop stop-color="#6EBFE1" offset="0%"></stop>
            <stop stop-color="#41AAD7" offset="50%"></stop>
            <stop stop-color="#1896CC" offset="100%"></stop>
        </linearGradient>
        <linearGradient x1="120.3236%" y1="-177.428%" x2="12.6464%" y2="129.984%" id="linearGradient-6">
            <stop stop-color="#6EBFE1" offset="0%"></stop>
            <stop stop-color="#41AAD7" offset="50%"></stop>
            <stop stop-color="#1896CC" offset="100%"></stop>
        </linearGradient>
        <linearGradient x1="109.386935%" y1="-66.3784615%" x2="1.07138462%" y2="170.093846%" id="linearGradient-7">
            <stop stop-color="#6EBFE1" offset="0%"></stop>
            <stop stop-color="#41AAD7" offset="50%"></stop>
            <stop stop-color="#1896CC" offset="100%"></stop>
        </linearGradient>
    </defs>
    <g id="1.-Products-Logos-/-24-/-Continous-Pentest" stroke="none" stroke-width="1" fill="none" fill-rule="evenodd">
        <rect id="Rectangle" x="0" y="0" width="24" height="24"></rect>
        <g id="Continous-Pentest-Candidaten-2">
            <g id="Group" transform="translate(3.000000, 2.000000)" fill-rule="nonzero">
                <polygon id="Path" fill="url(#linearGradient-1)" points="1.5 14.1 1.5 9.3 0 8.4 0 15 8.6 19.8 8 17.7"></polygon>
                <polygon id="Path" fill="url(#linearGradient-2)" points="2.5 9.8 2.5 13.5 7.6 16.3 6.2 11.9"></polygon>
                <polygon id="Path" fill="url(#linearGradient-3)" points="17 4.4 14.9 3.3 12.9 4.4 12.9 4.4 12 4.9 12 1.7 10 0.6 10 6 9 6.6 9 6.6 9 6.6 8 6 8 0.6 6 1.7 6 4.9 3.1 3.3 1 4.4 9 8.9"></polygon>
                <polygon id="Path" fill="url(#linearGradient-4)" points="9 10 0 5 0 7.3 9 12.3 11 11.2 18 7.3 18 5"></polygon>
                <polygon id="Path" fill="url(#linearGradient-5)" points="16.5 14.1 10 17.7 9.4 19.8 18 15 18 8.4 16.5 9.3"></polygon>
                <polygon id="Path" fill="url(#linearGradient-6)" points="9 13.4 7.5 12.6 9 17.6 10.5 12.6"></polygon>
                <polygon id="Path" fill="url(#linearGradient-7)" points="15.5 9.8 11.8 11.9 10.4 16.3 15.5 13.5"></polygon>
            </g>
            <rect id="Rectangle" x="0" y="0" width="24" height="24"></rect>
        </g>
    </g>
</svg>