<svg xmlns="http://www.w3.org/2000/svg" width="128" height="128" viewBox="0 0 128 128">
    <defs>
        <linearGradient id="a" x1="0%" x2="100.001%" y1="50.021%" y2="50.021%">
            <stop offset="0%" stop-color="#C2CCD5"/>
            <stop offset="100%" stop-color="#E3E8EC"/>
        </linearGradient>
    </defs>
    <g fill="none" fill-rule="nonzero" transform="translate(1)">
        <path fill="url(#a)" d="M125.765 45.223c-1.9-11.953-12.327-20.923-25-18.638C99.449 12.639 88.293 1.663 74.328.572 60.362-.52 47.637 8.592 44.17 22.164a23.07 23.07 0 0 0-33.713 20.48c0 .512 0 .984.059 1.526C4.923 45.893 0 51.535 0 57.285-.07 67.75 10.25 69.75 10.25 69.75h97.97c9.806-.02 19.554-11.914 17.545-24.527z"/>
        <path fill="#8797A6" d="M21.238 38.4h39.385v59.077H21.238z"/>
        <path fill="#FFF" d="M56.684 34.462H25.177v59.076H64.56v-51.2z"/>
        <path fill="#8797A6" d="M64.561 42.338h-7.877v-7.876z"/>
        <circle cx="62.779" cy="77.726" r="23.729" fill="#FFF"/>
        <g>
            <path fill="#5F7A99" d="M91.362 95.015L85.986 89.6c6.809-11.657 3.915-26.555-6.762-34.816-10.677-8.261-25.825-7.321-35.399 2.196l4.746 4.755c7.885-7.885 20.669-7.885 28.554 0 7.885 7.885 7.885 20.67 0 28.554l9.521 9.472 4.716-4.746zM112.758 121.157a3.367 3.367 0 0 0 0-4.756L93.745 97.388l-4.755 4.756 21.385 21.396 2.383-2.383z"/>
            <g fill="#324459">
                <path d="M77.105 90.26c-7.885 7.885-20.669 7.885-28.554 0-7.885-7.885-7.885-20.67 0-28.554l-4.745-4.756c-9.694 9.548-10.72 24.836-2.39 35.595 8.33 10.758 23.388 13.591 35.06 6.596l5.375 5.376 4.795-4.756-9.54-9.501zM88.99 102.144l-4.756 4.756 19.013 19.013a3.367 3.367 0 0 0 4.755 0l2.373-2.373-21.385-21.396z"/>
            </g>
        </g>
        <g>
            <path fill="#E04A3F" d="M53.268 69.18l6.96 6.96-6.96 6.971 2.786 2.777 6.961-6.961 6.962 6.961 1.388-1.388-16.7-16.71z"/>
            <path fill="#ED908A" d="M63.015 73.364l-6.96-6.962-1.39 1.389 16.7 16.709 1.398-1.389-6.961-6.97 6.961-6.962-2.786-2.777z"/>
        </g>
    </g>
</svg>
